<?xml version="1.0" standalone="no"?>
<!DOCTYPE svg PUBLIC "-//W3C//DTD SVG 20010904//EN"
 "http://www.w3.org/TR/2001/REC-SVG-20010904/DTD/svg10.dtd">
<svg version="1.0" xmlns="http://www.w3.org/2000/svg"
 width="500.000000pt" height="500.000000pt" viewBox="0 0 500.000000 500.000000"
 preserveAspectRatio="xMidYMid meet">
<metadata>
Created by potrace 1.11, written by Peter Selinger 2001-2013
</metadata>
<g transform="translate(0.000000,500.000000) scale(0.100000,-0.100000)"
fill="#000000" stroke="none">
<path d="M2257 4954 c-1 -1 -47 -4 -102 -8 -179 -12 -252 -19 -325 -31 -19 -3
-51 -8 -70 -10 -19 -2 -35 -4 -35 -5 0 -1 -9 -3 -20 -4 -11 -1 -38 -6 -60 -10
-22 -5 -51 -10 -64 -12 -12 -3 -53 -12 -90 -20 -36 -9 -70 -17 -76 -18 -5 -2
-30 -8 -55 -15 -25 -7 -52 -15 -60 -16 -68 -15 -178 -64 -245 -110 -315 -214
-492 -580 -542 -1120 -14 -152 -7 -609 12 -740 4 -29 10 -85 21 -185 2 -25 6
-54 9 -66 3 -12 7 -39 10 -60 25 -167 122 -488 195 -649 161 -352 293 -565
525 -845 75 -90 304 -325 390 -400 89 -77 154 -130 245 -199 52 -39 101 -76
107 -81 56 -46 326 -213 450 -277 l72 -37 38 21 c21 12 54 30 73 42 19 11 49
28 65 37 56 31 230 148 310 208 608 454 1035 1030 1262 1701 44 129 88 300
103 395 6 41 16 91 20 110 5 19 12 55 15 80 3 25 8 56 10 70 24 170 25 180 41
400 6 93 6 505 0 580 -12 145 -18 193 -37 300 -46 269 -106 382 -286 541 -85
75 -277 185 -413 236 -30 12 -64 25 -75 29 -11 4 -22 8 -25 9 -3 1 -12 4 -20
7 -15 6 -123 36 -150 42 -8 2 -33 9 -55 14 -46 13 -69 17 -180 37 -73 13 -98
17 -190 30 -16 3 -61 7 -100 10 -38 3 -99 8 -135 11 -59 5 -557 13 -563 8z
m547 -418 c44 -3 105 -10 136 -16 32 -6 75 -12 96 -15 22 -2 50 -7 64 -10 14
-3 41 -8 60 -11 19 -3 56 -11 83 -19 26 -8 47 -12 47 -10 0 3 32 -7 71 -21 39
-14 78 -27 87 -29 30 -5 155 -58 210 -87 131 -70 216 -136 306 -238 38 -43 94
-171 110 -251 26 -130 36 -189 35 -196 -1 -4 0 -10 1 -13 1 -3 4 -23 5 -45 2
-22 4 -40 5 -40 6 0 15 -241 15 -415 0 -207 -13 -467 -25 -490 -1 -3 -2 -9 -1
-14 1 -5 -3 -32 -9 -60 -6 -28 -12 -64 -15 -81 -2 -16 -13 -64 -25 -105 -12
-41 -22 -83 -23 -92 -1 -10 -6 -18 -11 -18 -5 0 -7 -3 -4 -6 4 -3 -7 -38 -23
-77 -17 -40 -30 -73 -30 -74 0 -17 -102 -230 -152 -318 -55 -96 -160 -259
-169 -263 -5 -2 -8 -10 -8 -17 0 -7 -4 -15 -8 -17 -4 -1 -33 -37 -64 -78 -32
-41 -70 -89 -85 -105 -15 -17 -62 -68 -103 -114 -71 -80 -207 -208 -314 -296
-26 -22 -53 -45 -59 -50 -15 -13 -97 -75 -127 -95 -12 -8 -33 -23 -46 -33 -34
-26 -204 -137 -209 -137 -3 0 -23 -12 -45 -26 -22 -15 -46 -24 -55 -20 -8 3
-16 5 -18 4 -9 -3 -354 186 -367 202 -4 5 -105 74 -169 115 -9 6 -20 15 -26
21 -5 5 -32 28 -60 49 -27 22 -60 49 -72 62 -12 13 -25 23 -29 23 -11 0 -224
218 -224 229 0 6 -4 11 -9 11 -8 0 -45 44 -152 180 -37 47 -154 234 -151 242
1 4 -2 8 -6 8 -8 0 -135 253 -138 276 -1 6 -9 27 -17 45 -29 64 -98 289 -113
369 -2 14 -11 59 -19 100 -16 82 -28 173 -26 207 0 12 -4 25 -9 28 -6 4 -8 10
-5 15 3 5 -1 75 -10 157 -16 160 -27 461 -16 467 4 3 5 24 4 48 -2 24 2 84 9
133 6 50 12 100 13 112 1 13 5 26 8 30 4 3 7 18 7 33 0 15 9 52 19 83 11 32
18 57 15 57 -3 0 -2 6 3 13 4 6 8 17 9 22 2 11 60 132 85 175 35 62 129 165
202 222 23 18 44 35 47 38 19 21 117 74 160 85 3 1 12 4 20 8 33 13 116 39
140 44 14 2 58 13 98 23 41 11 77 19 80 19 4 -1 9 0 12 1 3 1 16 3 30 5 14 1
68 9 120 18 52 9 128 18 168 21 40 2 75 5 77 8 6 5 495 1 589 -6z"/>
<path d="M1762 3269 l3 -1044 973 0 c536 0 976 3 978 6 2 3 -18 27 -44 52 -26
25 -85 87 -132 137 -47 51 -106 113 -131 139 -25 25 -110 116 -189 201 -161
174 -205 220 -305 325 -129 135 -171 179 -310 330 -143 154 -205 220 -310 328
-33 34 -59 65 -57 69 1 5 -2 8 -7 8 -5 0 -89 87 -188 192 -98 106 -202 217
-231 246 l-52 54 2 -1043z"/>
<path d="M3290 3560 l0 -754 55 -55 c72 -72 245 -251 316 -327 30 -32 64 -67
75 -76 19 -17 19 -9 19 737 l0 753 -75 79 c-41 43 -120 123 -175 178 -55 56
-114 116 -131 135 -17 19 -43 46 -57 59 l-27 24 0 -753z"/>
<path d="M2790 1645 c0 -267 2 -485 5 -485 3 0 27 23 53 51 26 28 82 87 125
130 44 44 77 79 74 79 -3 0 34 39 82 88 47 48 156 161 241 252 85 90 190 199
232 242 43 43 85 89 94 103 l16 24 -461 0 -461 0 0 -484z"/>
<path d="M2619 2042 c-191 -202 -393 -414 -459 -482 -212 -219 -385 -403 -388
-411 -2 -5 182 -9 462 -9 l466 0 0 485 c0 267 -4 485 -8 485 -5 0 -38 -30 -73
-68z"/>
</g>
</svg>
